<svg style="height: 512px; width: 512px;" xmlns="http://www.w3.org/2000/svg" viewBox="0 0 512 512"><g class="" style="" transform="translate(0,0)"><g><path d="M328.547 19.115C297.937 118.335 280.964 170.32 241.667 175.893C223.041 178.535 198.679 156.668 171.507 125.603C186.977 156.305 192.782 180.868 182.352 186.951C166.565 196.161 131.257 180.011 75.537 156.114C107.19 176.941 159.204 206.294 152.895 214.744C144.821 225.554 75.665 210.038 22.029 201.581C111.253 226.979 159.639 257.153 159.639 283.968C159.639 302.391 110.794 346.148 87.751 367.896C107.309 356.499 152.487 343.456 164.528 364.906C177.863 388.664 157.951 426.506 136.028 492.933C167.418 446.743 209.391 384.811 226.762 386.443C239.01 387.593 221.957 447.135 216.292 485.153C237.839 405.071 262.826 352.653 306.445 354.138C336.11 355.148 364.467 384.9 395.435 406.185C379.247 386.375 349.46 358.195 355.885 352.942C364.785 345.666 412.365 365.489 450.109 378.668C425.127 360.706 381.465 334.788 388.456 327.816C398.873 317.429 460.892 329.148 505.946 334.994C418.2 304.266 369.1 290.807 358.616 256.461C353.333 239.151 369.469 216.161 399.506 188.423C368.129 205.62 344.918 217.117 335.769 200.815C324.193 180.193 347.143 134.932 371.007 74.755C349.872 107.225 322.475 158.242 315.753 151.929C306.781 143.504 321.351 74.332 328.548 19.116L328.545 19.116Z" class="selected" fill="#e9bc40" fill-opacity="0.6"></path><path d="M20.45 19.27L20.45 42.63C68.97 70.067 115.703 105.02 161.783 145.416C128.015 103.731 94.443 61.626 67.758 19.27L20.45 19.27Z" class="" fill="#e9bc40" fill-opacity="0"></path><path d="M196.24 19.27C214.705 56.626 230.743 96.23 244.715 137.24C239.708 97.45 234.817 57.873 232.451 19.27L196.241 19.27Z" class="" fill="#e9bc40" fill-opacity="0"></path><path d="M356.262 19.27C349.082 45.942 340.846 72.707 331.146 99.863C346.551 72.523 361.844 45.349 377.869 19.27L356.26 19.27Z" class="" fill="#e9bc40" fill-opacity="0"></path><path d="M461.385 19.27C433.49 69.988 397.655 119.143 355.678 167.025C402.192 129.345 448.578 91.682 495.842 63.655L495.842 19.27L461.385 19.27Z" class="" fill="#e9bc40" fill-opacity="0"></path><path d="M495.84 179.29C459.763 197.27 420.997 213.326 380.205 227.18C419.113 221.01 458.087 215.075 495.84 211.41L495.84 179.29Z" class="" fill="#e9bc40" fill-opacity="0"></path><path d="M289.574 222.158C298.924 222.158 306.504 229.738 306.504 239.09C306.504 248.44 298.924 256.02 289.574 256.02C280.224 256.02 272.644 248.44 272.644 239.09C272.644 229.74 280.224 222.158 289.574 222.158Z" class="" fill="#e9bc40" fill-opacity="0"></path><path d="M237.514 223.756C253.022 223.756 265.596 236.326 265.596 251.836C265.596 261.554 260.658 270.116 253.156 275.158C256.77 279.001 258.998 284.16 258.998 289.852C258.998 301.712 249.385 311.326 237.525 311.326C225.665 311.326 216.051 301.711 216.051 289.852C216.051 284.165 218.279 279.01 221.888 275.168C214.378 270.128 209.435 261.56 209.435 251.836C209.435 236.326 222.005 223.756 237.515 223.756Z" class="" fill="#e9bc40" fill-opacity="0"></path><path d="M20.45 235.078L20.45 273.625C52.32 269.041 84.91 267.932 117.982 269.535C84.255 259.345 50.575 249.185 20.452 235.078Z" class="" fill="#e9bc40" fill-opacity="0"></path><path d="M286.27 263.455C295.62 263.455 303.2 271.035 303.2 280.387C303.2 289.737 295.62 297.317 286.27 297.317C276.92 297.317 269.338 289.737 269.338 280.387C269.338 271.037 276.918 263.455 286.27 263.455Z" class="" fill="#e9bc40" fill-opacity="0"></path><path d="M128.494 295.05C92.341 307.04 56.254 315.343 20.451 319.363L20.451 370.756C51.445 342.116 89.877 318.492 128.495 295.053L128.495 295.051Z" class="" fill="#e9bc40" fill-opacity="0"></path><path d="M134.334 383.695C96.411 414.415 58.727 445.177 20.449 470.715L20.449 494.658L50.233 494.658C74.253 456.898 102.598 419.893 134.333 383.695Z" class="" fill="#e9bc40" fill-opacity="0"></path><path d="M336.404 394.791C363.211 427.884 389.63 461.205 412.912 494.661L472.48 494.661C425.894 467.583 380.603 433.541 336.406 394.791L336.404 394.791Z" class="" fill="#e9bc40" fill-opacity="0"></path><path d="M283.842 404.721C280.667 434.981 277.452 465.221 273.33 494.661L293.77 494.661C289.26 465.578 285.866 435.491 283.844 404.721L283.842 404.721Z" class="" fill="#e9bc40" fill-opacity="0"></path><path d="M310.707 418.153C322.053 443.626 333.081 469.333 343.412 494.661L366.772 494.661C347.377 470.761 328.667 445.021 310.707 418.153Z" class="" fill="#e9bc40" fill-opacity="0"></path></g></g></svg>